<svg width="1364" height="606" xmlns="http://www.w3.org/2000/svg" xmlns:xlink="http://www.w3.org/1999/xlink" xml:space="preserve" overflow="hidden"><defs><clipPath id="clip0"><rect x="1062" y="1131" width="1364" height="606"/></clipPath></defs><g clip-path="url(#clip0)" transform="translate(-1062 -1131)"><text fill="#A3D1E5" font-family="Adobe Garamond Pro Bold,Adobe Garamond Pro Bold_MSFontService,sans-serif" font-weight="700" font-size="183" transform="matrix(1 0 0 1 1553.37 1351)">SMART </text><text fill="#A3D1E5" font-family="Adobe Garamond Pro Bold,Adobe Garamond Pro Bold_MSFontService,sans-serif" font-weight="700" font-size="183" transform="matrix(1 0 0 1 1726.39 1571)">Lab</text><path d="M1120.29 1284.52 1098.98 1284.52 1098.98 1266.81C1099.07 1266.6 1099.17 1266.39 1099.29 1266.19L1120.29 1266.19 1120.29 1244.89 1138.67 1244.89 1138.67 1266.22 1159.98 1266.22 1159.98 1284.55 1138.67 1284.55 1138.67 1305.89 1120.29 1305.89Z" fill="#A3D1E5" fill-rule="evenodd"/><path d="M1271.44 1342.8C1267.59 1344.25 1266.39 1347.27 1268.49 1352.33L1268.49 1352.33C1270.38 1354.84 1267.04 1355.77 1268.49 1359.63 1269.93 1363.48 1265.7 1367.81 1266.32 1372.18 1266.94 1376.55 1267.28 1389.39 1250.07 1388.08 1232.85 1386.77 1220.14 1396.68 1220.07 1412.37 1220.53 1426 1224.18 1439.33 1230.72 1451.28 1192.21 1469.28 1142.76 1451.9 1128.61 1434.73 1135.69 1417.8 1138.71 1395.06 1127.61 1379.68 1122.32 1372.22 1115.55 1365.92 1109.92 1358.73 1104.79 1351.69 1100.77 1343.9 1097.99 1335.65 1094.42 1326.09 1092.39 1316.02 1091.98 1305.82 1108.98 1326.78 1139.73 1329.96 1160.66 1312.94 1181.59 1295.92 1184.78 1265.13 1167.78 1244.17 1160.55 1235.26 1150.42 1229.17 1139.16 1226.99 1151.39 1221.47 1164.81 1219.11 1178.19 1220.11 1196.11 1221.08 1213.34 1227.38 1227.67 1238.21 1244.4 1251.39 1256.84 1272.37 1256.84 1290.85 1256.84 1293.4 1255.12 1296.8 1255.64 1299.97 1258.76 1313.08 1268.9 1322.57 1276.94 1330.11 1283.33 1335.92 1278.76 1340.05 1271.44 1342.8Z" fill="#A5DBCC" fill-rule="evenodd"/><path d="M1293.76 1454.42C1293.76 1454.42 1280.78 1432.89 1280.88 1412.46 1280.88 1396.8 1293.76 1386.73 1311.02 1388.17 1328.27 1389.61 1327.86 1376.61 1327.27 1372.28 1326.69 1367.94 1330.72 1363.4 1329.44 1359.72 1328.17 1356.04 1331.44 1354.94 1329.44 1352.43L1329.44 1352.43C1327.31 1347.37 1328.51 1344.35 1332.41 1342.87 1339.74 1340.18 1344.36 1335.99 1337.92 1330.07 1329.82 1322.54 1319.7 1313.08 1316.53 1299.97 1316.67 1296.9 1317.09 1293.85 1317.77 1290.86 1317.77 1272.35 1305.26 1251.37 1288.49 1238.23 1274.15 1227.39 1256.89 1221.08 1238.93 1220.1 1233.95 1219.73 1228.94 1219.84 1223.98 1220.41 1233.97 1222.37 1246.44 1229.49 1257.01 1238.23 1273.44 1251.78 1286.25 1272.35 1286.25 1290.86 1286.25 1293.37 1284.53 1296.74 1285.01 1299.97 1288.15 1313.08 1298.34 1322.54 1306.4 1330.07 1312.81 1336.06 1308.19 1340.18 1300.89 1342.87 1297 1344.35 1295.79 1347.37 1297.93 1352.43L1297.93 1352.43C1299.82 1354.94 1296.48 1355.87 1297.93 1359.72 1299.37 1363.58 1295.17 1367.91 1295.79 1372.28 1296.41 1376.65 1296.76 1389.48 1279.5 1388.17 1262.25 1386.86 1249.47 1396.8 1249.4 1412.46 1249.4 1432.89 1261.11 1453.42 1261.11 1453.42 1271.19 1459 1283.35 1459.37 1293.76 1454.42Z" fill="#A3D1E5" fill-rule="evenodd"/><path d="M1086.14 1246.83 1077.98 1246.83 1077.98 1240.18 1077.98 1239.94 1086.14 1239.94 1086.14 1231.89 1092.99 1231.89 1092.99 1239.94 1100.98 1239.94 1100.98 1246.83 1092.99 1246.83 1092.99 1254.89 1086.14 1254.89Z" fill="#A3D1E5" fill-rule="evenodd"/><path d="M1068.28 1271.28 1062.98 1271.28 1062.98 1266.66 1062.98 1266.49 1068.18 1266.49 1068.18 1260.88 1072.71 1260.88 1072.71 1266.49 1077.98 1266.49 1077.98 1271.28 1072.71 1271.28 1072.71 1276.88 1068.28 1276.88Z" fill="#A3D1E5" fill-rule="evenodd"/><path d="M1379 1382 2379.39 1382" stroke="#A3D1E5" stroke-width="13.75" stroke-linecap="round" stroke-miterlimit="8" fill="none" fill-rule="evenodd"/><text fill="#A5DBCC" font-family="Adobe Garamond Pro Bold,Adobe Garamond Pro Bold_MSFontService,sans-serif" font-weight="700" font-size="62" transform="matrix(1 0 0 1 1376.71 1455)">Towards </text><text fill="#A5DBCC" font-family="Adobe Garamond Pro Bold,Adobe Garamond Pro Bold_MSFontService,sans-serif" font-weight="700" font-size="62" transform="matrix(1 0 0 1 1612.18 1455)">Trustworthy AI for Healthcare</text></g></svg>